<svg width="42" height="36" viewBox="0 0 42 36" fill="none" xmlns="http://www.w3.org/2000/svg">
<path d="M20.7076 0.00281811C20.8307 0.00142315 20.8307 0.00142315 20.9562 0C21.2653 0.0634008 21.3592 0.160447 21.5515 0.408626C21.5868 0.706876 21.5868 0.706876 21.5741 1.03237C21.5692 1.19488 21.5692 1.19488 21.5642 1.36068C21.56 1.44329 21.5558 1.5259 21.5515 1.61102C21.7073 1.60976 21.863 1.6085 22.0235 1.6072C22.6 1.60286 23.1766 1.60009 23.7531 1.59781C24.0029 1.5966 24.2527 1.59496 24.5025 1.59288C24.861 1.58997 25.2194 1.5886 25.5779 1.58754C25.6901 1.58629 25.8022 1.58505 25.9178 1.58377C26.0216 1.58376 26.1253 1.58374 26.2322 1.58372C26.3238 1.58319 26.4154 1.58265 26.5097 1.5821C26.7355 1.61102 26.7355 1.61102 26.9766 1.8515C26.9096 2.39926 26.9096 2.39926 26.7355 2.57294C26.5346 2.57782 26.3336 2.57807 26.1327 2.57294C26.174 2.64803 26.2153 2.72313 26.2578 2.8005C26.4474 3.14538 26.6366 3.49041 26.8259 3.83545C26.8909 3.95356 26.9558 4.07166 27.0228 4.19335C28.0616 6.0887 28.0616 6.0887 28.0616 6.55587C27.7642 7.40863 27.226 7.85796 26.4944 8.34443C25.6866 8.44382 24.8083 8.52484 24.1209 8.0288C23.5984 7.54739 23.1724 7.02631 23.1187 6.30036C23.2336 5.99906 23.3526 5.73538 23.5025 5.45257C23.5429 5.37336 23.5832 5.29415 23.6247 5.21253C23.7534 4.96058 23.8843 4.70991 24.0154 4.45919C24.1032 4.28823 24.1909 4.11718 24.2784 3.94606C24.4926 3.52733 24.7099 3.11041 24.9271 2.69317C23.8529 2.69317 22.7788 2.69317 21.672 2.69317C21.672 5.03424 21.672 7.3753 21.672 9.7873C22.229 9.7873 22.786 9.7873 23.3599 9.7873C23.8532 10.0251 24.0236 10.1791 24.3243 10.629C24.3243 11.0654 24.3243 11.5019 24.3243 11.9516C21.9373 11.9516 19.5502 11.9516 17.0908 11.9516C17.0908 10.6156 17.0908 10.6156 17.6206 10.0611C18.2705 9.54546 19.0252 9.7873 19.8637 9.7873C19.8637 7.40656 19.8637 5.02582 19.8637 2.57294C18.7099 2.57294 17.5562 2.57294 16.3675 2.57294C16.8668 3.49021 16.8668 3.49021 17.3665 4.40735C17.4292 4.52272 17.4919 4.6381 17.5566 4.75697C17.6203 4.87409 17.6841 4.99121 17.7498 5.11188C17.8108 5.22632 17.8719 5.34077 17.9347 5.45868C18.0024 5.58475 18.07 5.71082 18.1397 5.84071C18.3369 6.2679 18.3156 6.45561 18.1758 6.90155C17.8049 7.56224 17.3518 7.93045 16.7291 8.34443C15.9328 8.44241 15.0462 8.52498 14.3632 8.04383C13.9469 7.65954 13.544 7.19985 13.3535 6.66107C13.4124 6.23592 13.5347 5.89467 13.7284 5.51316C13.8053 5.36065 13.8053 5.36065 13.8838 5.20505C13.9644 5.04788 13.9644 5.04788 14.0467 4.88754C14.0986 4.78463 14.1505 4.68171 14.204 4.57567C14.5474 3.89887 14.9082 3.23324 15.2824 2.57294C15.1656 2.57542 15.0487 2.5779 14.9283 2.58045C14.5591 2.57294 14.5591 2.57294 14.4385 2.4527C14.4159 2.15961 14.4159 2.15961 14.4385 1.8515C14.6797 1.61102 14.6797 1.61102 14.9055 1.5821C15.0428 1.5829 15.0428 1.5829 15.1829 1.58372C15.3386 1.58375 15.3386 1.58375 15.4974 1.58377C15.6095 1.58502 15.7217 1.58626 15.8372 1.58754C15.9519 1.58788 16.0667 1.58822 16.1849 1.58857C16.5522 1.58992 16.9194 1.59293 17.2867 1.59599C17.5354 1.5972 17.784 1.59829 18.0327 1.59928C18.643 1.60193 19.2533 1.60609 19.8637 1.61102C19.8595 1.52841 19.8553 1.44579 19.851 1.36068C19.8477 1.25234 19.8444 1.14399 19.8411 1.03237C19.8348 0.871249 19.8348 0.871249 19.8283 0.706876C19.8637 0.408626 19.8637 0.408626 20.0313 0.192277C20.2722 0.0130214 20.4093 -0.000562779 20.7076 0.00281811ZM15.7647 3.17413C15.7118 3.27511 15.7118 3.27511 15.6578 3.37812C15.4978 3.68348 15.3374 3.98867 15.177 4.29386C15.1215 4.3998 15.066 4.50574 15.0088 4.61489C14.9552 4.7168 14.9016 4.81871 14.8464 4.92371C14.7971 5.01753 14.7479 5.11135 14.6971 5.20802C14.5591 5.45868 14.5591 5.45868 14.318 5.8194C14.318 5.93844 14.318 6.05747 14.318 6.18012C15.3524 6.18012 16.3868 6.18012 17.4525 6.18012C17.2287 5.73373 17.2287 5.73373 17.0004 5.27832C16.9156 5.10924 16.8309 4.94015 16.7461 4.77106C16.7036 4.68674 16.6611 4.60243 16.6173 4.51555C16.529 4.33844 16.4422 4.16054 16.3569 3.98199C16.1545 3.49534 16.1545 3.49534 15.7647 3.17413ZM25.5299 3.17413C25.288 3.62962 25.0472 4.08568 24.8066 4.54186C24.7376 4.67174 24.6686 4.80163 24.5975 4.93545C24.4996 5.12145 24.4996 5.12145 24.3997 5.3112C24.3391 5.4258 24.2785 5.5404 24.216 5.65847C24.0661 5.9241 24.0661 5.9241 24.0832 6.18012C25.1176 6.18012 26.152 6.18012 27.2177 6.18012C26.466 4.66031 26.466 4.66031 25.6505 3.17413C25.6107 3.17413 25.5709 3.17413 25.5299 3.17413Z" fill="#FAC02F"/>
<path d="M14.6975 11.985C14.838 11.9842 14.9785 11.9834 15.1232 11.9826C15.5875 11.9802 16.0518 11.9788 16.5161 11.9776C16.6769 11.9771 16.8377 11.9766 16.9985 11.9761C17.755 11.9738 18.5115 11.9721 19.268 11.9711C20.1362 11.97 21.0043 11.9668 21.8725 11.9619C22.5467 11.9583 23.2208 11.9565 23.895 11.9561C24.2961 11.9558 24.6971 11.9546 25.0983 11.9517C28.5854 11.9288 31.4717 12.5999 34.0847 15.0616C35.24 16.2262 36.8047 18.2056 36.8047 19.9421C36.9589 19.9321 37.1131 19.9222 37.2719 19.912C38.4154 19.9174 39.3754 20.4857 40.1804 21.2647C41.1022 22.3269 41.454 23.3766 41.4128 24.7732C41.3119 26.0482 40.7626 27.1352 39.8187 27.9981C39.0086 28.5687 38.248 28.9695 37.2493 29.0352C37.1205 29.0442 36.9916 29.0531 36.8589 29.0624C36.7615 29.0683 36.664 29.0742 36.5636 29.0803C36.5147 29.2384 36.5147 29.2384 36.4647 29.3996C35.5607 31.9554 33.272 33.8437 30.9223 35.0204C28.8288 35.9679 26.7016 36.0063 24.4433 35.9978C24.1378 35.9981 23.8322 35.9986 23.5267 35.9992C22.8899 35.9999 22.2531 35.9989 21.6163 35.9966C20.8859 35.994 20.1557 35.9948 19.4254 35.9975C18.715 35.9999 18.0046 35.9997 17.2942 35.9983C16.9954 35.9979 16.6966 35.9983 16.3978 35.9995C12.8615 36.0099 9.81628 35.2726 7.22134 32.7612C6.34247 31.8846 4.85679 30.392 4.85679 29.0803C4.72252 29.0877 4.58825 29.0951 4.44991 29.1028C3.22551 29.0963 2.21411 28.5742 1.33658 27.7487C0.252139 26.6031 -0.0328262 25.443 0.00290832 23.8921C0.0828054 22.7194 0.547129 21.9246 1.36343 21.0876C2.23944 20.3458 3.23316 19.8199 4.41129 19.9125C4.47874 19.9222 4.54619 19.932 4.61568 19.9421C4.632 19.856 4.64831 19.77 4.66512 19.6814C5.20892 17.171 6.99339 15.0018 9.12625 13.6215C10.8791 12.5417 12.6391 11.99 14.6975 11.985ZM9.55857 18.4992C8.44332 20.0326 8.06676 21.4073 8.06719 23.2876C8.06667 23.5454 8.06229 23.803 8.05771 24.0607C8.03998 26.1876 8.55515 27.9234 9.97676 29.5387C11.411 30.9519 13.0221 31.5023 15.0005 31.5044C15.1347 31.505 15.2688 31.5056 15.4071 31.5062C15.8502 31.508 16.2934 31.5088 16.7365 31.5095C17.0455 31.5102 17.3546 31.5109 17.6636 31.5115C18.2289 31.5126 18.7941 31.5134 19.3594 31.5138C20.1879 31.5143 21.0164 31.5164 21.8448 31.5199C22.5654 31.5228 23.2859 31.5237 24.0065 31.5239C24.3115 31.5243 24.6165 31.5253 24.9215 31.5269C25.3496 31.5289 25.7777 31.5287 26.2058 31.5279C26.3302 31.529 26.4547 31.5301 26.5829 31.5313C28.1951 31.5222 29.3491 31.0644 30.6563 30.1624C30.7307 30.113 30.8052 30.0635 30.8819 30.0126C32.024 29.1698 32.9447 27.5096 33.2633 26.1463C33.3598 25.4797 33.3486 24.8043 33.3466 24.132C33.3462 23.8663 33.3491 23.6008 33.3521 23.3351C33.3563 22.3912 33.2917 21.5529 32.9469 20.6635C32.9132 20.5624 32.8795 20.4612 32.8447 20.357C32.3075 18.7546 31.0424 17.4184 29.5562 16.6505C28.5378 16.1578 27.7007 16.0585 26.581 16.0595C26.4397 16.0587 26.2985 16.0579 26.1529 16.057C25.687 16.0547 25.221 16.0543 24.755 16.054C24.5937 16.0537 24.4324 16.0533 24.2711 16.0529C23.426 16.0506 22.5809 16.0497 21.7358 16.0498C20.9515 16.05 20.1672 16.0475 19.3829 16.0436C18.7068 16.0405 18.0307 16.0392 17.3546 16.0394C16.952 16.0394 16.5495 16.0385 16.1469 16.0362C15.6969 16.0338 15.2469 16.0345 14.7969 16.036C14.6659 16.0346 14.5349 16.0333 14.3999 16.0319C12.3826 16.0482 10.8483 16.9958 9.55857 18.4992Z" fill="#F4F0E5"/>
<path d="M14.718 16.0022C14.8588 16.0012 14.9997 16.0002 15.1448 15.9992C15.6097 15.9963 16.0744 15.9952 16.5393 15.9944C16.7003 15.9939 16.8613 15.9934 17.0223 15.9928C17.8661 15.9899 18.7099 15.9883 19.5537 15.9879C20.3361 15.9875 21.1185 15.9839 21.9009 15.9788C22.5757 15.9746 23.2506 15.9728 23.9255 15.9727C24.3271 15.9726 24.7287 15.9713 25.1304 15.9681C27.5811 15.9504 29.441 16.0841 31.2916 17.8624C31.8675 18.4769 32.339 19.1305 32.7087 19.8867C32.797 20.0671 32.797 20.0671 32.8872 20.2512C33.3513 21.4233 33.3693 22.5952 33.3717 23.8396C33.3723 23.9261 33.3728 24.0125 33.3734 24.1016C33.3788 26.2149 32.7764 28.0845 31.262 29.6261C30.8384 29.978 30.3976 30.2882 29.9358 30.588C29.8628 30.6387 29.7898 30.6894 29.7145 30.7416C28.682 31.4072 27.4056 31.4833 26.2125 31.4745C26.0099 31.4751 26.0099 31.4751 25.8033 31.4758C25.3617 31.4768 24.9202 31.4751 24.4787 31.4734C24.1695 31.4733 23.8604 31.4734 23.5512 31.4736C22.9055 31.4736 22.2598 31.4723 21.6141 31.4701C20.8699 31.4676 20.1256 31.4672 19.3813 31.4679C18.6617 31.4686 17.942 31.4679 17.2223 31.4666C16.9176 31.4661 16.6129 31.466 16.3081 31.4662C15.8823 31.4662 15.4566 31.4647 15.0308 31.4627C14.9057 31.463 14.7807 31.4633 14.6519 31.4636C12.7978 31.4501 11.1826 30.6928 9.88642 29.3861C8.4177 27.8048 8.02646 25.8728 8.05191 23.7834C8.05451 23.5301 8.0519 23.2773 8.04885 23.024C8.04423 20.7924 8.85406 19.1739 10.4054 17.6022C11.6285 16.3797 13.0334 16.0032 14.718 16.0022ZM13.4419 21.8256C12.9303 22.4963 12.9853 23.1519 13.0577 23.9749C13.3845 24.663 13.9262 25.1183 14.6249 25.4177C15.4073 25.5458 16.0154 25.4121 16.6848 24.9969C17.1279 24.6506 17.3401 24.2677 17.5183 23.7344C17.5909 23.0166 17.5285 22.4447 17.1567 21.8105C16.5689 21.1966 16.1121 20.9518 15.2503 20.9313C14.404 20.9405 13.9877 21.1982 13.4419 21.8256ZM24.0888 21.9383C23.7658 22.5954 23.7659 23.4306 23.996 24.1176C24.3263 24.7416 24.8354 25.1429 25.4752 25.4177C26.2398 25.5409 26.8117 25.4369 27.4418 24.9884C27.924 24.581 28.311 24.0896 28.4133 23.4582C28.4347 22.6704 28.2788 22.1737 27.7658 21.5701C27.1214 20.9733 26.5809 20.9187 25.7262 20.928C24.9715 21.011 24.557 21.3662 24.0888 21.9383Z" fill="#121219"/>
<path d="M16.3549 21.0969C16.9058 21.5024 17.3957 21.959 17.5153 22.6525C17.6035 23.42 17.5229 24.0771 17.0331 24.6966C16.3676 25.2251 15.7915 25.4683 14.944 25.4598C14.2647 25.3716 13.8119 24.9867 13.3636 24.4937C12.9259 23.8476 12.9886 23.1728 13.0547 22.412C13.6827 21.063 14.9742 20.6634 16.3549 21.0969Z" fill="#FAC02F"/>
<path d="M27.0597 21.059C27.686 21.3868 28.0884 21.8961 28.3637 22.5338C28.4873 23.2964 28.383 23.8668 27.9333 24.4952C27.5248 24.9761 27.0321 25.3621 26.399 25.4642C25.6091 25.4855 25.1111 25.33 24.5059 24.8183C23.9022 24.17 23.8592 23.634 23.8706 22.7757C23.9262 22.1562 24.12 21.8212 24.5812 21.3878C25.3049 20.8464 26.2066 20.7728 27.0597 21.059Z" fill="#FAC02F"/>
</svg>
