<svg width="60" height="554" viewBox="0 0 60 554" fill="none" xmlns="http://www.w3.org/2000/svg">
<path d="M30.7646 221.854C32.8438 221.855 34.5293 223.54 34.5293 225.619C34.5291 227.698 32.8437 229.384 30.7646 229.384C28.6855 229.384 27.0002 227.698 27 225.619C27 223.54 28.6854 221.854 30.7646 221.854ZM30.7646 209.537C32.8438 209.537 34.5293 211.223 34.5293 213.302C34.5292 215.381 32.8438 217.066 30.7646 217.066C28.6855 217.066 27.0001 215.381 27 213.302C27 211.223 28.6854 209.537 30.7646 209.537ZM30.7646 197.21C32.8438 197.21 34.5293 198.896 34.5293 200.976C34.5291 203.055 32.8437 204.74 30.7646 204.74C28.6855 204.74 27.0002 203.055 27 200.976C27 198.896 28.6854 197.21 30.7646 197.21ZM30.7646 184.889C32.8438 184.889 34.5293 186.575 34.5293 188.654C34.5291 190.733 32.8437 192.419 30.7646 192.419C28.6856 192.419 27.0002 190.733 27 188.654C27 186.575 28.6854 184.889 30.7646 184.889ZM30.7646 172.568C32.8437 172.568 34.5291 174.254 34.5293 176.333C34.5293 178.412 32.8438 180.098 30.7646 180.098C28.6854 180.098 27 178.412 27 176.333C27.0002 174.254 28.6855 172.568 30.7646 172.568ZM30.7646 160.251C32.8438 160.251 34.5293 161.936 34.5293 164.016C34.5291 166.095 32.8437 167.78 30.7646 167.78C28.6855 167.78 27.0002 166.095 27 164.016C27 161.936 28.6854 160.251 30.7646 160.251ZM30.7646 147.93C32.8437 147.93 34.529 149.615 34.5293 151.694C34.5293 153.774 32.8438 155.46 30.7646 155.46C28.6854 155.46 27 153.774 27 151.694C27.0003 149.615 28.6856 147.93 30.7646 147.93ZM30.7646 135.604C32.8438 135.604 34.5292 137.289 34.5293 139.368C34.5293 141.447 32.8438 143.133 30.7646 143.133C28.6854 143.133 27 141.447 27 139.368C27.0001 137.289 28.6855 135.604 30.7646 135.604ZM30.7646 123.286C32.8437 123.286 34.529 124.972 34.5293 127.051C34.5293 129.13 32.8438 130.816 30.7646 130.816C28.6854 130.816 27 129.13 27 127.051C27.0003 124.972 28.6856 123.286 30.7646 123.286ZM30.7646 110.961C32.8438 110.961 34.5292 112.646 34.5293 114.726C34.5293 116.805 32.8438 118.49 30.7646 118.49C28.6854 118.49 27 116.805 27 114.726C27.0001 112.646 28.6855 110.961 30.7646 110.961ZM30.7646 98.6436C32.8437 98.6436 34.5291 100.329 34.5293 102.408C34.5293 104.487 32.8438 106.173 30.7646 106.173C28.6854 106.173 27 104.487 27 102.408C27.0002 100.329 28.6855 98.6436 30.7646 98.6436ZM30.7646 86.3213C32.8437 86.3213 34.5291 88.0069 34.5293 90.0859C34.5293 92.1651 32.8438 93.8515 30.7646 93.8516C28.6854 93.8516 27 92.1652 27 90.0859C27.0002 88.0069 28.6855 86.3213 30.7646 86.3213ZM30.7646 74C32.8437 74 34.5291 75.6856 34.5293 77.7646C34.5293 79.8439 32.8438 81.5293 30.7646 81.5293C28.6854 81.5293 27 79.8439 27 77.7646C27.0002 75.6856 28.6855 74 30.7646 74Z" fill="url(#paint0_linear_583_368)"/>
<path d="M30.7646 468.854C32.8438 468.854 34.5292 470.539 34.5293 472.618C34.5293 474.697 32.8438 476.383 30.7646 476.383C28.6854 476.383 27 474.697 27 472.618C27.0001 470.539 28.6855 468.854 30.7646 468.854ZM30.7646 456.536C32.8437 456.536 34.529 458.222 34.5293 460.301C34.5293 462.38 32.8438 464.066 30.7646 464.066C28.6854 464.066 27 462.38 27 460.301C27.0002 458.222 28.6856 456.536 30.7646 456.536ZM30.7646 444.21C32.8438 444.21 34.5292 445.896 34.5293 447.975C34.5293 450.054 32.8438 451.739 30.7646 451.739C28.6854 451.739 27 450.054 27 447.975C27.0001 445.895 28.6855 444.21 30.7646 444.21ZM30.7646 431.889C32.8438 431.889 34.5292 433.574 34.5293 435.653C34.5293 437.733 32.8438 439.418 30.7646 439.418C28.6854 439.418 27 437.733 27 435.653C27.0001 433.574 28.6855 431.889 30.7646 431.889ZM30.7646 419.567C32.8438 419.567 34.5292 421.253 34.5293 423.332C34.5293 425.411 32.8438 427.097 30.7646 427.097C28.6854 427.097 27 425.411 27 423.332C27.0001 421.253 28.6854 419.567 30.7646 419.567ZM30.7646 407.25C32.8437 407.25 34.5291 408.936 34.5293 411.015C34.5293 413.094 32.8438 414.779 30.7646 414.779C28.6854 414.779 27 413.094 27 411.015C27.0002 408.936 28.6855 407.25 30.7646 407.25ZM30.7646 394.929C32.8438 394.929 34.5292 396.614 34.5293 398.693C34.5293 400.773 32.8438 402.458 30.7646 402.458C28.6854 402.458 27 400.773 27 398.693C27.0001 396.614 28.6855 394.929 30.7646 394.929ZM30.7646 382.603C32.8438 382.603 34.5293 384.288 34.5293 386.367C34.5293 388.446 32.8438 390.132 30.7646 390.132C28.6854 390.132 27 388.446 27 386.367C27 384.288 28.6854 382.603 30.7646 382.603ZM30.7646 370.285C32.8438 370.285 34.5292 371.971 34.5293 374.05C34.5293 376.129 32.8438 377.814 30.7646 377.814C28.6854 377.814 27 376.129 27 374.05C27.0001 371.971 28.6855 370.285 30.7646 370.285ZM30.7646 357.961C32.8438 357.961 34.5293 359.646 34.5293 361.726C34.5292 363.805 32.8438 365.49 30.7646 365.49C28.6855 365.49 27.0001 363.805 27 361.726C27 359.646 28.6854 357.961 30.7646 357.961ZM30.7646 345.644C32.8438 345.644 34.5293 347.329 34.5293 349.408C34.5293 351.487 32.8438 353.173 30.7646 353.173C28.6854 353.173 27 351.487 27 349.408C27 347.329 28.6854 345.644 30.7646 345.644ZM30.7646 333.32C32.8438 333.32 34.5292 335.006 34.5293 337.085C34.5293 339.164 32.8438 340.85 30.7646 340.85C28.6854 340.85 27 339.164 27 337.085C27.0001 335.006 28.6855 333.32 30.7646 333.32ZM30.7646 321C32.8438 321 34.5293 322.685 34.5293 324.765C34.5293 326.844 32.8438 328.529 30.7646 328.529C28.6854 328.529 27 326.844 27 324.765C27 322.685 28.6854 321 30.7646 321Z" fill="url(#paint1_linear_583_368)"/>
<rect width="59.9142" height="56.1101" rx="8.55917" fill="#FAC02F"/>
<path d="M27.4964 43.0547V16.7609L30.3723 19.6368H21.7446V14.2959H34.152V43.0547H27.4964Z" fill="#121219"/>
<rect y="247" width="59.9142" height="56.1101" rx="8.55917" fill="#FAC02F"/>
<path d="M18.8128 290.055V285.741L29.9055 275.264C30.7819 274.47 31.4256 273.758 31.8364 273.128C32.2473 272.498 32.5212 271.923 32.6581 271.403C32.8225 270.882 32.9046 270.403 32.9046 269.965C32.9046 268.814 32.5075 267.938 31.7132 267.335C30.9463 266.705 29.8096 266.39 28.3032 266.39C27.0981 266.39 25.9751 266.623 24.9343 267.089C23.9209 267.554 23.0582 268.28 22.346 269.266L17.4981 266.144C18.5937 264.5 20.1275 263.199 22.0995 262.241C24.0716 261.282 26.3449 260.803 28.9195 260.803C31.0558 260.803 32.9183 261.159 34.5069 261.871C36.1229 262.556 37.3691 263.528 38.2455 264.788C39.1494 266.048 39.6013 267.554 39.6013 269.307C39.6013 270.238 39.4781 271.17 39.2316 272.101C39.0124 273.005 38.5468 273.963 37.8347 274.977C37.15 275.99 36.1366 277.127 34.7945 278.387L25.5917 287.056L24.3181 284.632H40.5463V290.055H18.8128Z" fill="#121219"/>
<rect y="497" width="59.9142" height="56.1101" rx="8.55917" fill="#FAC02F"/>
<path d="M28.3854 540.548C26.386 540.548 24.4002 540.287 22.4282 539.767C20.4562 539.219 18.7854 538.452 17.4159 537.466L20.0042 532.372C21.0998 533.166 22.3734 533.796 23.8251 534.262C25.2767 534.727 26.742 534.96 28.221 534.96C29.8918 534.96 31.2065 534.632 32.1651 533.974C33.1237 533.317 33.6031 532.413 33.6031 531.263C33.6031 530.167 33.1785 529.304 32.3294 528.674C31.4804 528.044 30.1109 527.729 28.221 527.729H25.1808V523.333L33.1922 514.254L33.9317 516.637H18.8539V511.296H38.9851V515.61L31.0148 524.689L27.6459 522.758H29.5768C33.11 522.758 35.7805 523.553 37.5882 525.141C39.3959 526.73 40.2997 528.77 40.2997 531.263C40.2997 532.879 39.8752 534.399 39.0261 535.823C38.1771 537.22 36.8761 538.357 35.1232 539.233C33.3702 540.109 31.1243 540.548 28.3854 540.548Z" fill="#121219"/>
<defs>
<linearGradient id="paint0_linear_583_368" x1="30.7646" y1="62.5265" x2="30.7646" y2="252.986" gradientUnits="userSpaceOnUse">
<stop stop-color="#C79925" stop-opacity="0"/>
<stop offset="0.519231" stop-color="#FAC02F"/>
<stop offset="1" stop-color="#94721C" stop-opacity="0"/>
</linearGradient>
<linearGradient id="paint1_linear_583_368" x1="30.7646" y1="309.527" x2="30.7646" y2="499.985" gradientUnits="userSpaceOnUse">
<stop stop-color="#C79925" stop-opacity="0"/>
<stop offset="0.519231" stop-color="#FAC02F"/>
<stop offset="1" stop-color="#94721C" stop-opacity="0"/>
</linearGradient>
</defs>
</svg>
