<svg width="32" height="32" viewBox="0 0 32 32" fill="none" xmlns="http://www.w3.org/2000/svg">
<path d="M22.666 4.45254C24.677 5.61368 26.3499 7.27991 27.5191 9.28627C28.6883 11.2926 29.3132 13.5696 29.3319 15.8917C29.3507 18.2137 28.7626 20.5005 27.626 22.5255C26.4894 24.5505 24.8437 26.2435 22.8517 27.437C20.8597 28.6304 18.5905 29.283 16.2688 29.33C13.9471 29.3769 11.6534 28.8168 9.61476 27.7049C7.57609 26.593 5.86318 24.9679 4.64557 22.9906C3.42797 21.0132 2.74789 18.7522 2.67268 16.4312L2.66602 15.9992L2.67268 15.5672C2.74735 13.2645 3.41741 11.0205 4.61753 9.05386C5.81766 7.08724 7.50689 5.46514 9.52054 4.34572C11.5342 3.22629 13.8035 2.64773 16.1074 2.66646C18.4112 2.68518 20.6708 3.30054 22.666 4.45254ZM15.9993 7.99921C15.6728 7.99925 15.3576 8.11915 15.1135 8.33616C14.8695 8.55317 14.7136 8.8522 14.6753 9.17654L14.666 9.33254V15.9992L14.678 16.1739C14.7084 16.4052 14.799 16.6245 14.9407 16.8099L15.0567 16.9432L19.0567 20.9432L19.182 21.0525C19.4158 21.234 19.7034 21.3324 19.9993 21.3324C20.2953 21.3324 20.5829 21.234 20.8167 21.0525L20.942 20.9419L21.0527 20.8165C21.2341 20.5827 21.3326 20.2952 21.3326 19.9992C21.3326 19.7032 21.2341 19.4157 21.0527 19.1819L20.942 19.0565L17.3327 15.4459V9.33254L17.3233 9.17654C17.2851 8.8522 17.1292 8.55317 16.8852 8.33616C16.6411 8.11915 16.3259 7.99925 15.9993 7.99921Z" fill="#F4F0E5"/>
</svg>
