<svg width="30" height="30" viewBox="0 0 30 30" fill="none" xmlns="http://www.w3.org/2000/svg">
<g clip-path="url(#clip0_609_417)">
<path fill-rule="evenodd" clip-rule="evenodd" d="M3.21429 0C2.3618 0 1.54424 0.338647 0.941442 0.941442C0.338647 1.54424 0 2.3618 0 3.21429L0 23.5714C0 24.4239 0.338647 25.2415 0.941442 25.8443C1.54424 26.4471 2.3618 26.7857 3.21429 26.7857V28.29C3.21429 28.7162 3.38361 29.125 3.68501 29.4264C3.9864 29.7278 4.39519 29.8971 4.82143 29.8971C5.24767 29.8971 5.65645 29.7278 5.95785 29.4264C6.25925 29.125 6.42857 28.7162 6.42857 28.29V26.7857H23.5714V28.29C23.5714 28.7162 23.7408 29.125 24.0422 29.4264C24.3435 29.7278 24.7523 29.8971 25.1786 29.8971C25.6048 29.8971 26.0136 29.7278 26.315 29.4264C26.6164 29.125 26.7857 28.7162 26.7857 28.29V26.7857C27.6382 26.7857 28.4558 26.4471 29.0586 25.8443C29.6614 25.2415 30 24.4239 30 23.5714V3.21429C30 2.3618 29.6614 1.54424 29.0586 0.941442C28.4558 0.338647 27.6382 0 26.7857 0L3.21429 0ZM18.75 10.5921C17.205 10.5921 15.9514 11.8436 15.9493 13.3864V13.3993C15.9506 13.9529 16.1159 14.4938 16.4244 14.9535C16.7329 15.4133 17.1708 15.7712 17.6827 15.9822C18.1945 16.1932 18.7575 16.2478 19.3003 16.139C19.8432 16.0302 20.3416 15.7629 20.7327 15.371C21.1237 14.979 21.3898 14.48 21.4974 13.9369C21.6049 13.3938 21.5491 12.831 21.3369 12.3196C21.1247 11.8082 20.7658 11.3712 20.3053 11.0637C19.8449 10.7562 19.3037 10.5921 18.75 10.5921ZM17.4086 8.07857C16.8903 8.20693 16.3941 8.41205 15.9364 8.68714L14.6786 7.42929C14.4274 7.17809 14.0867 7.03697 13.7314 7.03697C13.3762 7.03697 13.0355 7.17809 12.7843 7.42929C12.5331 7.68048 12.392 8.02118 12.392 8.37643C12.392 8.73168 12.5331 9.07237 12.7843 9.32357L14.0421 10.5814C13.7671 11.0391 13.5619 11.5353 13.4336 12.0536H11.6507C11.2955 12.0536 10.9549 12.1947 10.7037 12.4458C10.4525 12.697 10.3114 13.0377 10.3114 13.3929C10.3114 13.7481 10.4525 14.0887 10.7037 14.3399C10.9549 14.591 11.2955 14.7321 11.6507 14.7321H13.4336C13.5664 15.2593 13.7693 15.75 14.0421 16.2043L12.7843 17.4621C12.5331 17.7133 12.392 18.054 12.392 18.4093C12.392 18.7645 12.5331 19.1052 12.7843 19.3564C13.0355 19.6076 13.3762 19.7487 13.7314 19.7487C14.0867 19.7487 14.4274 19.6076 14.6786 19.3564L15.9364 18.0986C16.3907 18.37 16.8814 18.5729 17.4086 18.7071V20.49C17.4086 20.8452 17.5497 21.1859 17.8008 21.437C18.052 21.6882 18.3927 21.8293 18.7479 21.8293C19.1031 21.8293 19.4437 21.6882 19.6949 21.437C19.946 21.1859 20.0871 20.8452 20.0871 20.49V18.7071C20.6143 18.5743 21.105 18.3714 21.5593 18.0986L22.8171 19.3564C23.0683 19.6076 23.409 19.7487 23.7643 19.7487C24.1195 19.7487 24.4602 19.6076 24.7114 19.3564C24.9626 19.1052 25.1037 18.7645 25.1037 18.4093C25.1037 18.054 24.9626 17.7133 24.7114 17.4621L23.4536 16.2043C23.725 15.75 23.9279 15.2593 24.0621 14.7321H25.845C26.2002 14.7321 26.5409 14.591 26.792 14.3399C27.0432 14.0887 27.1843 13.7481 27.1843 13.3929C27.1843 13.0377 27.0432 12.697 26.792 12.4458C26.5409 12.1947 26.2002 12.0536 25.845 12.0536H24.0621C23.9338 11.5353 23.7287 11.0391 23.4536 10.5814L24.7114 9.32357C24.8358 9.19919 24.9345 9.05153 25.0018 8.88902C25.0691 8.72651 25.1037 8.55233 25.1037 8.37643C25.1037 8.20053 25.0691 8.02635 25.0018 7.86384C24.9345 7.70133 24.8358 7.55367 24.7114 7.42929C24.587 7.3049 24.4394 7.20624 24.2769 7.13893C24.1144 7.07161 23.9402 7.03697 23.7643 7.03697C23.5884 7.03697 23.4142 7.07161 23.2517 7.13893C23.0892 7.20624 22.9415 7.3049 22.8171 7.42929L21.5593 8.68714C21.1016 8.41205 20.6054 8.20693 20.0871 8.07857V6.29571C20.0871 5.94051 19.946 5.59986 19.6949 5.3487C19.4437 5.09753 19.1031 4.95643 18.7479 4.95643C18.3927 4.95643 18.052 5.09753 17.8008 5.3487C17.5497 5.59986 17.4086 5.94051 17.4086 6.29571V8.07857ZM6.67929 8.85857C6.67929 8.50337 6.53818 8.16272 6.28702 7.91155C6.03585 7.66039 5.6952 7.51929 5.34 7.51929C4.9848 7.51929 4.64415 7.66039 4.39298 7.91155C4.14182 8.16272 4.00071 8.50337 4.00071 8.85857V17.9271C4.00071 18.2823 4.14182 18.623 4.39298 18.8742C4.64415 19.1253 4.9848 19.2664 5.34 19.2664C5.6952 19.2664 6.03585 19.1253 6.28702 18.8742C6.53818 18.623 6.67929 18.2823 6.67929 17.9271V8.85857Z" fill="#F4F0E5"/>
</g>
<defs>
<clipPath id="clip0_609_417">
<rect width="30" height="30" fill="white"/>
</clipPath>
</defs>
</svg>
