<svg width="32" height="32" viewBox="0 0 32 32" fill="none" xmlns="http://www.w3.org/2000/svg">
<path d="M17.3319 2.66602L17.3306 4.37002L23.9972 6.59402L28.8412 4.98068L29.6839 7.50868L25.6426 8.85668L29.7692 20.206C29.0235 20.9851 28.1275 21.6048 27.1354 22.0276C26.1433 22.4505 25.0757 22.6676 23.9972 22.666C22.919 22.6675 21.8517 22.4502 20.8598 22.0274C19.8679 21.6045 18.9721 20.9849 18.2266 20.206L22.3519 8.85668L17.3306 7.18202V25.3327H22.6639V27.9993H9.33056V25.3327H14.6639V7.18202L9.64256 8.85668L13.7692 20.206C13.0238 20.9848 12.1282 21.6043 11.1366 22.0271C10.145 22.4499 9.0779 22.6673 7.9999 22.666C6.92121 22.6678 5.85338 22.4507 4.86103 22.0279C3.86868 21.6051 2.97244 20.9853 2.22656 20.206L6.35323 8.85668L2.31323 7.51002L3.1559 4.97935L7.9999 6.59268L14.6652 4.37002V2.66602H17.3319ZM23.9986 12.1367L22.1066 17.3327H25.8866L23.9986 12.1367ZM7.99856 12.1367L6.10656 17.3327H9.88656L7.99856 12.1367Z" fill="#F4F0E5"/>
</svg>
