<svg width="156" height="8" viewBox="0 0 156 8" fill="none" xmlns="http://www.w3.org/2000/svg">
<path d="M7.5293 3.76465C7.5293 5.84384 5.84382 7.52922 3.76465 7.5293C1.68541 7.5293 0 5.84388 0 3.76465C7.6541e-05 1.68548 1.68546 0 3.76465 0C5.84377 7.65337e-05 7.52922 1.68552 7.5293 3.76465ZM19.8457 3.76465C19.8457 5.84384 18.1602 7.52922 16.0811 7.5293C14.0018 7.5293 12.3164 5.84388 12.3164 3.76465C12.3165 1.68548 14.0019 0 16.0811 0C18.1602 7.65337e-05 19.8456 1.68552 19.8457 3.76465ZM32.1729 3.76465C32.1729 5.84384 30.4874 7.52922 28.4082 7.5293C26.329 7.5293 24.6436 5.84388 24.6436 3.76465C24.6436 1.68548 26.329 0 28.4082 0C30.4873 7.65337e-05 32.1728 1.68552 32.1729 3.76465ZM44.4941 3.76465C44.4941 5.84384 42.8087 7.52922 40.7295 7.5293C38.6503 7.5293 36.9648 5.84388 36.9648 3.76465C36.9649 1.68548 38.6503 0 40.7295 0C42.8086 7.65337e-05 44.4941 1.68552 44.4941 3.76465ZM56.8145 3.76465C56.8144 5.84373 55.1289 7.52911 53.0498 7.5293C50.9706 7.5293 49.2852 5.84385 49.2852 3.76465C49.2852 1.68541 50.9706 0 53.0498 0C55.1289 0.00018374 56.8145 1.68553 56.8145 3.76465ZM69.1318 3.76465C69.1318 5.84384 67.4464 7.52922 65.3672 7.5293C63.288 7.5293 61.6025 5.84388 61.6025 3.76465C61.6026 1.68548 63.288 0 65.3672 0C67.4463 7.65337e-05 69.1318 1.68552 69.1318 3.76465ZM81.4531 3.76465C81.4531 5.84384 79.7676 7.52922 77.6885 7.5293C75.6092 7.5293 73.9238 5.84388 73.9238 3.76465C73.9239 1.68548 75.6093 0 77.6885 0C79.7676 7.65337e-05 81.453 1.68552 81.4531 3.76465ZM93.7793 3.76465C93.7793 5.84376 92.0937 7.52915 90.0146 7.5293C87.9354 7.5293 86.25 5.84385 86.25 3.76465C86.25 1.68541 87.9354 0 90.0146 0C92.0938 0.000144572 93.7793 1.6855 93.7793 3.76465ZM106.097 3.76465C106.097 5.84384 104.411 7.52922 102.332 7.5293C100.253 7.5293 98.5674 5.84388 98.5674 3.76465C98.5675 1.68548 100.253 0 102.332 0C104.411 7.65337e-05 106.097 1.68552 106.097 3.76465ZM118.422 3.76465C118.422 5.84381 116.736 7.52923 114.657 7.5293C112.578 7.5293 110.893 5.84385 110.893 3.76465C110.893 1.68541 112.578 0 114.657 0C116.736 6.62317e-05 118.422 1.68545 118.422 3.76465ZM130.739 3.76465C130.739 5.84374 129.054 7.52912 126.975 7.5293C124.895 7.5293 123.21 5.84385 123.21 3.76465C123.21 1.68541 124.895 0 126.975 0C129.054 0.000175494 130.739 1.68552 130.739 3.76465ZM143.062 3.76465C143.062 5.84384 141.376 7.52922 139.297 7.5293C137.218 7.5293 135.532 5.84388 135.532 3.76465C135.532 1.68548 137.218 0 139.297 0C141.376 7.65337e-05 143.061 1.68552 143.062 3.76465ZM155.383 3.76465C155.383 5.84374 153.697 7.52912 151.618 7.5293C149.539 7.5293 147.854 5.84385 147.854 3.76465C147.854 1.68541 149.539 0 151.618 0C153.697 0.000174071 155.383 1.68552 155.383 3.76465Z" fill="url(#paint0_linear_609_523)"/>
<defs>
<linearGradient id="paint0_linear_609_523" x1="166.856" y1="3.76465" x2="-23.6025" y2="3.76465" gradientUnits="userSpaceOnUse">
<stop stop-color="#C79925" stop-opacity="0"/>
<stop offset="0.519231" stop-color="#FAC02F"/>
<stop offset="1" stop-color="#94721C" stop-opacity="0"/>
</linearGradient>
</defs>
</svg>
