<svg width="156" height="8" viewBox="0 0 156 8" fill="none" xmlns="http://www.w3.org/2000/svg">
<path d="M7.5293 3.76465C7.52925 5.84376 5.84373 7.52915 3.76465 7.5293C1.68544 7.5293 4.57764e-05 5.84385 0 3.76465C0 1.68541 1.68541 0 3.76465 0C5.84377 0.00014251 7.5293 1.6855 7.5293 3.76465ZM19.8467 3.76465C19.8467 5.84384 18.1612 7.52922 16.082 7.5293C14.0028 7.5293 12.3174 5.84388 12.3174 3.76465C12.3175 1.68548 14.0028 0 16.082 0C18.1611 7.65337e-05 19.8466 1.68552 19.8467 3.76465ZM32.1729 3.76465C32.1728 5.84376 30.4873 7.52916 28.4082 7.5293C26.329 7.5293 24.6436 5.84385 24.6436 3.76465C24.6436 1.68541 26.329 0 28.4082 0C30.4873 0.000138387 32.1729 1.6855 32.1729 3.76465ZM44.4941 3.76465C44.4941 5.84378 42.8086 7.5292 40.7295 7.5293C38.6503 7.5293 36.9649 5.84385 36.9648 3.76465C36.9648 1.68541 38.6503 0 40.7295 0C42.8086 0.000101279 44.4941 1.68547 44.4941 3.76465ZM56.8154 3.76465C56.8154 5.84381 55.1299 7.52924 53.0508 7.5293C50.9716 7.5293 49.2862 5.84385 49.2861 3.76465C49.2861 1.68541 50.9715 0 53.0508 0C55.13 6.00468e-05 56.8154 1.68545 56.8154 3.76465ZM69.1328 3.76465C69.1328 5.84374 67.4472 7.52913 65.3682 7.5293C63.289 7.5293 61.6036 5.84385 61.6035 3.76465C61.6035 1.68541 63.2889 0 65.3682 0C67.4473 0.000171371 69.1328 1.68552 69.1328 3.76465ZM81.4541 3.76465C81.4541 5.84377 79.7686 7.52917 77.6895 7.5293C75.6102 7.5293 73.9249 5.84385 73.9248 3.76465C73.9248 1.68541 75.6102 0 77.6895 0C79.7686 0.000130141 81.4541 1.68549 81.4541 3.76465ZM93.7803 3.76465C93.7802 5.84383 92.0948 7.52928 90.0156 7.5293C87.9364 7.5293 86.251 5.84385 86.251 3.76465C86.251 1.68541 87.9364 0 90.0156 0C92.0948 2.08749e-05 93.7803 1.68543 93.7803 3.76465ZM106.098 3.76465C106.098 5.84377 104.412 7.52917 102.333 7.5293C100.254 7.5293 98.5684 5.84385 98.5684 3.76465C98.5684 1.68541 100.254 0 102.333 0C104.412 0.000130141 106.098 1.68549 106.098 3.76465ZM118.422 3.76465C118.422 5.84384 116.736 7.52922 114.657 7.5293C112.578 7.5293 110.893 5.84388 110.893 3.76465C110.893 1.68548 112.578 0 114.657 0C116.736 7.65337e-05 118.422 1.68552 118.422 3.76465ZM130.739 3.76465C130.739 5.84385 129.054 7.5293 126.975 7.5293C124.895 7.52927 123.21 5.84383 123.21 3.76465C123.21 1.68543 124.895 2.44832e-05 126.975 0C129.054 0 130.739 1.68541 130.739 3.76465ZM143.062 3.76465C143.062 5.84379 141.377 7.52921 139.298 7.5293C137.219 7.5293 135.533 5.84385 135.533 3.76465C135.533 1.68541 137.219 0 139.298 0C141.377 8.94249e-05 143.062 1.68547 143.062 3.76465ZM155.383 3.76465C155.383 5.84385 153.697 7.5293 151.618 7.5293C149.539 7.52927 147.854 5.84383 147.854 3.76465C147.854 1.68543 149.539 2.5471e-05 151.618 0C153.697 0 155.383 1.68541 155.383 3.76465Z" fill="url(#paint0_linear_609_505)"/>
<defs>
<linearGradient id="paint0_linear_609_505" x1="166.856" y1="3.76465" x2="-23.6025" y2="3.76465" gradientUnits="userSpaceOnUse">
<stop stop-color="#C79925" stop-opacity="0"/>
<stop offset="0.519231" stop-color="#FAC02F"/>
<stop offset="1" stop-color="#94721C" stop-opacity="0"/>
</linearGradient>
</defs>
</svg>
