<svg width="27" height="27" viewBox="0 0 27 27" fill="none" xmlns="http://www.w3.org/2000/svg">
<path d="M13.5 0.5C20.6799 0.5 26.5 6.32011 26.5 13.5C26.5 20.6799 20.6799 26.5 13.5 26.5C6.32011 26.5 0.5 20.6799 0.5 13.5C0.5 6.32011 6.32011 0.5 13.5 0.5Z" fill="#FAC02F" stroke="#FAC02F"/>
<mask id="path-2-outside-1_609_557" maskUnits="userSpaceOnUse" x="5.64062" y="7.5" width="16" height="13" fill="black">
<rect fill="white" x="5.64062" y="7.5" width="16" height="13"/>
<path fill-rule="evenodd" clip-rule="evenodd" d="M20.1689 8.66126C20.2919 8.77235 20.3657 8.92771 20.3741 9.0932C20.3825 9.25868 20.3249 9.42075 20.2139 9.54376L11.8664 18.7694L6.8189 13.9513C6.70556 13.8354 6.64165 13.6801 6.64064 13.5181C6.63963 13.356 6.7016 13.1999 6.81349 13.0826C6.92537 12.9654 7.07842 12.8962 7.24034 12.8897C7.40227 12.8831 7.56041 12.9397 7.6814 13.0475L11.8002 16.9788L19.287 8.70564C19.3421 8.64475 19.4087 8.59532 19.4829 8.56017C19.5571 8.52501 19.6375 8.50483 19.7195 8.50077C19.8015 8.4967 19.8836 8.50884 19.9609 8.53649C20.0382 8.56413 20.1093 8.60674 20.1702 8.66189"/>
</mask>
<path fill-rule="evenodd" clip-rule="evenodd" d="M20.1689 8.66126C20.2919 8.77235 20.3657 8.92771 20.3741 9.0932C20.3825 9.25868 20.3249 9.42075 20.2139 9.54376L11.8664 18.7694L6.8189 13.9513C6.70556 13.8354 6.64165 13.6801 6.64064 13.5181C6.63963 13.356 6.7016 13.1999 6.81349 13.0826C6.92537 12.9654 7.07842 12.8962 7.24034 12.8897C7.40227 12.8831 7.56041 12.9397 7.6814 13.0475L11.8002 16.9788L19.287 8.70564C19.3421 8.64475 19.4087 8.59532 19.4829 8.56017C19.5571 8.52501 19.6375 8.50483 19.7195 8.50077C19.8015 8.4967 19.8836 8.50884 19.9609 8.53649C20.0382 8.56413 20.1093 8.60674 20.1702 8.66189" fill="#121219"/>
<path d="M20.2139 9.54376L20.9554 10.2147L20.9563 10.2137L20.2139 9.54376ZM11.8664 18.7694L11.1759 19.4927L11.9188 20.2019L12.6079 19.4403L11.8664 18.7694ZM6.8189 13.9513L6.10415 14.6506L6.11608 14.6628L6.12842 14.6746L6.8189 13.9513ZM7.6814 13.0475L8.37185 12.3241L8.35945 12.3123L8.34665 12.3009L7.6814 13.0475ZM11.8002 16.9788L11.1097 17.7021L11.8526 18.4112L12.5416 17.6498L11.8002 16.9788ZM19.287 8.70564L20.0285 9.37663L20.0285 9.37662L19.287 8.70564ZM20.1689 8.66126L19.4985 9.40328C19.4248 9.33664 19.3805 9.24342 19.3754 9.14412L20.3741 9.0932L21.3728 9.04227C21.3509 8.61199 21.159 8.20805 20.8393 7.91924L20.1689 8.66126ZM20.3741 9.0932L19.3754 9.14412C19.3703 9.04483 19.4049 8.94759 19.4715 8.87378L20.2139 9.54376L20.9563 10.2137C21.2449 9.89391 21.3947 9.47254 21.3728 9.04227L20.3741 9.0932ZM20.2139 9.54376L19.4724 8.87283L11.1249 18.0984L11.8664 18.7694L12.6079 19.4403L20.9554 10.2147L20.2139 9.54376ZM11.8664 18.7694L12.5569 18.046L7.50938 13.2279L6.8189 13.9513L6.12842 14.6746L11.1759 19.4927L11.8664 18.7694ZM6.8189 13.9513L7.53366 13.2519C7.60166 13.3214 7.64001 13.4146 7.64062 13.5118L6.64064 13.5181L5.64066 13.5243C5.64328 13.9456 5.80947 14.3495 6.10415 14.6506L6.8189 13.9513ZM6.64064 13.5181L7.64062 13.5118C7.64122 13.609 7.60404 13.7027 7.53691 13.7731L6.81349 13.0826L6.09006 12.3922C5.79916 12.6971 5.63803 13.1029 5.64066 13.5243L6.64064 13.5181ZM6.81349 13.0826L7.53691 13.7731C7.46978 13.8434 7.37795 13.8849 7.28079 13.8888L7.24034 12.8897L7.19989 11.8905C6.77889 11.9075 6.38096 12.0874 6.09006 12.3922L6.81349 13.0826ZM7.24034 12.8897L7.28079 13.8888C7.18364 13.8928 7.08876 13.8588 7.01616 13.7941L7.6814 13.0475L8.34665 12.3009C8.03206 12.0206 7.62089 11.8734 7.19989 11.8905L7.24034 12.8897ZM7.6814 13.0475L6.99095 13.7709L11.1097 17.7021L11.8002 16.9788L12.4906 16.2554L8.37185 12.3241L7.6814 13.0475ZM11.8002 16.9788L12.5416 17.6498L20.0285 9.37663L19.287 8.70564L18.5456 8.03464L11.0587 16.3078L11.8002 16.9788ZM19.287 8.70564L20.0285 9.37662C19.9954 9.41315 19.9555 9.44281 19.911 9.4639L19.4829 8.56017L19.0548 7.65643C18.8618 7.74783 18.6888 7.87635 18.5456 8.03465L19.287 8.70564ZM19.4829 8.56017L19.911 9.4639C19.8664 9.485 19.8182 9.4971 19.769 9.49954L19.7195 8.50077L19.67 7.50199C19.4568 7.51255 19.2478 7.56503 19.0548 7.65643L19.4829 8.56017ZM19.7195 8.50077L19.769 9.49954C19.7198 9.50198 19.6706 9.4947 19.6242 9.47811L19.9609 8.53649L20.2975 7.59487C20.0965 7.52299 19.8833 7.49143 19.67 7.50199L19.7195 8.50077ZM19.9609 8.53649L19.6242 9.47811C19.5778 9.46152 19.5351 9.43595 19.4986 9.40287L20.1702 8.66189L20.8417 7.92091C20.6835 7.77754 20.4986 7.66675 20.2975 7.59487L19.9609 8.53649Z" fill="#121219" mask="url(#path-2-outside-1_609_557)"/>
</svg>
