<svg width="40" height="40" viewBox="0 0 40 40" fill="none" xmlns="http://www.w3.org/2000/svg">
<rect width="40" height="40" rx="20" fill="#FAC02F"/>
<path fill-rule="evenodd" clip-rule="evenodd" d="M14.4262 13.0328C14.4262 11.5545 15.0134 10.1368 16.0587 9.0915C17.104 8.04622 18.5217 7.45898 20 7.45898C21.4782 7.45898 22.8959 8.04622 23.9412 9.0915C24.9865 10.1368 25.5737 11.5545 25.5737 13.0328C25.5737 14.511 24.9865 15.9287 23.9412 16.974C22.8959 18.0193 21.4782 18.6065 20 18.6065C18.5217 18.6065 17.104 18.0193 16.0587 16.974C15.0134 15.9287 14.4262 14.511 14.4262 13.0328ZM14.4262 21.3934C12.5784 21.3934 10.8062 22.1275 9.49963 23.4341C8.19303 24.7407 7.45898 26.5128 7.45898 28.3606C7.45898 29.4693 7.89941 30.5326 8.68337 31.3166C9.46734 32.1005 10.5306 32.541 11.6393 32.541H28.3606C29.4693 32.541 30.5326 32.1005 31.3166 31.3166C32.1005 30.5326 32.541 29.4693 32.541 28.3606C32.541 26.5128 31.8069 24.7407 30.5003 23.4341C29.1937 22.1275 27.4216 21.3934 25.5737 21.3934H14.4262Z" fill="#121219"/>
</svg>
