<svg width="40" height="40" viewBox="0 0 40 40" fill="none" xmlns="http://www.w3.org/2000/svg">
<rect width="40" height="40" rx="20" fill="#FAC02F"/>
<path d="M16.4343 24.3994V23.8294C16.4343 22.523 16.5372 21.4819 16.743 20.706C16.9489 19.9301 17.2537 19.3086 17.6575 18.8415C18.0613 18.3664 18.5561 17.9389 19.142 17.5589C19.6487 17.2263 20.1 16.9057 20.4958 16.5969C20.8996 16.2881 21.2163 15.9596 21.4459 15.6112C21.6834 15.2629 21.8022 14.867 21.8022 14.4236C21.8022 14.0278 21.7072 13.6794 21.5172 13.3785C21.3271 13.0777 21.0698 12.8441 20.7452 12.6779C20.4206 12.5116 20.0604 12.4285 19.6645 12.4285C19.237 12.4285 18.8411 12.5274 18.4769 12.7254C18.1206 12.9233 17.8317 13.1964 17.61 13.5448C17.3962 13.8932 17.2893 14.2969 17.2893 14.7561H11.2088C11.2247 13.0143 11.6205 11.6011 12.3964 10.5164C13.1723 9.42385 14.2016 8.62421 15.4842 8.1175C16.7668 7.60288 18.1761 7.34557 19.712 7.34557C21.4063 7.34557 22.9185 7.59496 24.2486 8.09375C25.5787 8.58462 26.6278 9.32885 27.3957 10.3264C28.1637 11.3161 28.5477 12.5551 28.5477 14.0436C28.5477 15.0016 28.3814 15.8448 28.0489 16.5732C27.7243 17.2936 27.2691 17.931 26.6832 18.4852C26.1052 19.0315 25.4283 19.5303 24.6524 19.9816C24.0824 20.3141 23.6034 20.6585 23.2154 21.0148C22.8275 21.3631 22.5345 21.7629 22.3366 22.2142C22.1387 22.6576 22.0397 23.196 22.0397 23.8294V24.3994H16.4343ZM19.332 32.38C18.4136 32.38 17.6258 32.0594 16.9687 31.4181C16.3195 30.7689 15.9988 29.9811 16.0067 29.0548C15.9988 28.1522 16.3195 27.3803 16.9687 26.739C17.6258 26.0977 18.4136 25.777 19.332 25.777C20.2029 25.777 20.9709 26.0977 21.6359 26.739C22.3089 27.3803 22.6493 28.1522 22.6572 29.0548C22.6493 29.6723 22.487 30.2344 22.1703 30.7412C21.8616 31.2399 21.4578 31.6398 20.959 31.9406C20.4602 32.2336 19.9179 32.38 19.332 32.38Z" fill="#121219"/>
</svg>
